<svg id="American_Express_Logo" data-name="American Express Logo" xmlns="http://www.w3.org/2000/svg" width="103.017" height="102.766" viewBox="0 0 103.017 102.766">
  <g id="Layer_1">
    <path id="Path_47" data-name="Path 47" d="M0,0V43.319l3.854-8.98h6.667L12.7,39.368V34.339h8.286l1.31,3.642,1.253-3.642H60.719V36.17a7.986,7.986,0,0,1,5.164-1.831l12.063.039,2.139,4.972v-5.01h6.937l1.908,2.852V34.339h6.995V50.468H88.93L87.1,47.616v2.852H76.925L75.9,47.924H73.168l-1,2.544h-6.9a6.841,6.841,0,0,1-4.528-1.792v1.792H50.333l-2.062-2.544v2.544H9.519L8.5,47.924H5.762L4.74,50.468H0v52.3H102.766V70.489a7.151,7.151,0,0,1-3.488,1.118H64.939l-2.062-2.544v2.544H56.114V67.271a5.755,5.755,0,0,1-2.929.6H50.872v3.738H40.621L38.79,69.159l-1.85,2.447H19.964V55.478H37.056l1.831,2.389,1.888-2.389h62.01V0Z" fill="#2c030a"/>
    <path id="Path_48" data-name="Path 48" d="M5.3,188.5.1,200.582H3.491l.963-2.428h5.569l.944,2.428h3.449L9.234,188.5Zm1.908,2.813,1.7,4.22H5.5l1.7-4.22Zm7.573,9.269V188.5h4.8l2.794,7.8,2.736-7.8h4.76v12.082H26.847v-8.9l-3.2,8.9h-2.64l-3.218-8.9v8.9H14.764Zm17.169,0V188.5H41.8v2.7H35v2.062h6.648V195.8H35v2.139h6.8v2.621H31.953Zm11.6-12.082v12.082h3.025v-4.3h1.272l3.623,4.3h3.7l-3.97-4.451a3.678,3.678,0,0,0,3.314-3.719A4.137,4.137,0,0,0,50.3,188.5H43.554Zm3.025,2.7h3.449a1.387,1.387,0,0,1,1.426,1.272,1.537,1.537,0,0,1-1.387,1.272H46.579Zm12.236,9.384H55.732V188.5h3.083Zm7.323,0h-.674c-3.218,0-5.184-2.544-5.184-5.993s1.927-6.089,5.993-6.089h3.334v2.852H66.138c-1.657,0-2.813,1.291-2.813,3.257a3.131,3.131,0,0,0,3.257,3.314h.79l-1.272,2.64ZM72.709,188.5l-5.2,12.082H70.9l.963-2.428H77.43l.944,2.428h3.449L76.64,188.5Zm1.927,2.813,1.7,4.22H72.921l1.7-4.22Zm7.554,9.269V188.5h3.835l4.895,7.592V188.5h3.025v12.082H90.225L85.2,192.8v7.785H82.19ZM22.106,221.721V209.639h9.847v2.7h-6.8V214.4H31.8v2.544H25.151v2.139h6.8V221.7H22.106Zm48.29,0V209.639h9.847v2.7h-6.8V214.4h6.61v2.544h-6.61v2.139h6.8V221.7H70.4Zm-38.058,0,4.8-5.974-4.914-6.109h3.8l2.929,3.777,2.929-3.777h3.661l-4.856,6.031,4.8,6.031h-3.8l-2.833-3.719L36.077,221.7H32.319Zm13.527-12.082v12.082h3.1v-3.815h3.18c2.7,0,4.721-1.426,4.721-4.2s-1.6-4.066-4.336-4.066Zm3.1,2.736h3.353a1.391,1.391,0,1,1-.019,2.775H48.968v-2.775Zm9.211-2.736v12.082H61.2v-4.3h1.272l3.623,4.3h3.7l-3.97-4.451a3.678,3.678,0,0,0,3.314-3.719,4.137,4.137,0,0,0-4.22-3.912H58.179Zm3.025,2.7h3.449a1.387,1.387,0,0,1,1.426,1.272,1.537,1.537,0,0,1-1.387,1.272H61.2v-2.544Zm20.445,9.384V219.1H87.7c.886,0,1.291-.482,1.291-1.021s-.385-1.021-1.291-1.021H84.964a3.382,3.382,0,0,1-3.7-3.623c0-2.177,1.214-3.8,4.74-3.8h5.877l-1.272,2.717H85.523c-.963,0-1.272.5-1.272,1a1.057,1.057,0,0,0,1.118,1.06h2.852c2.64,0,3.8,1.5,3.8,3.469a3.7,3.7,0,0,1-3.931,3.854H81.65Zm11.08,0V219.1h6.051c.886,0,1.291-.482,1.291-1.021s-.385-1.021-1.291-1.021H96.045a3.382,3.382,0,0,1-3.7-3.623c0-2.177,1.214-3.8,4.74-3.8h5.877l-1.272,2.717H96.6c-.964,0-1.272.5-1.272,1a1.057,1.057,0,0,0,1.118,1.06H99.3c2.64,0,3.8,1.5,3.8,3.469a3.7,3.7,0,0,1-3.931,3.854H92.73Z" transform="translate(-0.081 -152.176)" fill="#2c030a"/>
  </g>
</svg>
