<svg id="Layer_1" xmlns="http://www.w3.org/2000/svg" width="139.044" height="102.766" viewBox="0 0 139.044 102.766">
  <g id="Group_129" data-name="Group 129" transform="translate(0 0)">
    <path id="Path_49" data-name="Path 49" d="M220.572,49.847c1,0,1.809.019,2.618,0,2.642-.073,5.307.036,7.914-.3a8.391,8.391,0,0,0,6.671-4.667c.717-1.4,1.442-2.794,2.1-4.221a1.245,1.245,0,0,1,1.333-.792q10.728.029,21.458,0a1.268,1.268,0,0,1,1.309.837c.571,1.193,1.249,2.335,1.79,3.541a8.532,8.532,0,0,0,7.5,5.429c2.845.217,5.714.131,8.57.178.414.006.828,0,1.436,0-.2-.416-.268-.577-.35-.734q-5.472-10.628-10.944-21.257Q265.024,14.313,258.094.761A1.213,1.213,0,0,0,256.845,0c-3.253.028-6.508.034-9.764,0a1.353,1.353,0,0,0-1.408.867c-.9,1.824-1.873,3.616-2.8,5.427Q237.732,16.307,232.6,26.322q-5.736,11.15-11.5,22.289c-.172.333-.3.689-.539,1.234Zm28.284-26.853c1.036-2.15,2.064-4.3,3.008-6.277q2.926,6.093,6.141,12.785H245.7C246.8,27.249,247.831,25.123,248.856,22.994Z" transform="translate(-173.239 0.001)" fill="#2c030a"/>
    <path id="Path_50" data-name="Path 50" d="M25.917,241.23A25.487,25.487,0,0,0,0,267.094c-.013,13.68,11.613,25,25.688,25.01a25.437,25.437,0,0,0,.23-50.874Zm-.292,39.458a14.005,14.005,0,1,1,14.22-14,14.307,14.307,0,0,1-14.22,14Z" transform="translate(0 -189.466)" fill="#2c030a"/>
    <path id="Path_51" data-name="Path 51" d="M291.616,259.807c0-5.043-.026-10.085.021-15.128.009-1-.3-1.268-1.277-1.249-3.146.058-6.294.021-9.442.021-1.388,0-1.393,0-1.393,1.414,0,9.264.013,18.525-.017,27.789a10.3,10.3,0,0,1-.431,3.163,10.1,10.1,0,0,1-11.3,6.465,9.732,9.732,0,0,1-8.1-9.641c.135-9.369.028-18.74.051-28.11,0-.833-.212-1.112-1.077-1.1-3.29.047-6.581.052-9.871,0-.968-.015-1.277.24-1.272,1.249.039,9.478-.019,18.954.058,28.432a19.25,19.25,0,0,0,.792,5.6c2.5,7.871,8.06,12.575,15.926,14.54a21.7,21.7,0,0,0,16.027-2c6.783-3.691,10.916-9.281,11.244-17.177.2-4.749.036-9.51.036-14.268h.034Z" transform="translate(-194.39 -191.191)" fill="#2c030a"/>
    <path id="Path_52" data-name="Path 52" d="M45.26,117.994a1.526,1.526,0,0,0,1.494-.955c.813-1.468,1.648-2.925,2.468-4.39,1.011-1.8,2.015-3.609,3.163-5.667h-1.53q-16.944.058-33.885.133c-1.024.006-1.448-.163-1.406-1.326.1-2.678.079-5.362.006-8.043-.028-1.03.339-1.249,1.29-1.245,5.792.036,11.583,0,17.373.034.845,0,1.114-.238,1.1-1.088-.049-2.395-.017-4.79-.017-7.184a1.327,1.327,0,0,0-1.478-1.524H3.8A1.244,1.244,0,0,0,2.38,88.126v29.561c.618.028,1.112.069,1.6.071q20.642.113,41.282.234Z" transform="translate(-1.869 -68.127)" fill="#2c030a"/>
    <path id="Path_53" data-name="Path 53" d="M491.419.422H448.759a4.434,4.434,0,0,0-.084.586c-.006,2.968.021,5.935-.028,8.9-.015.856.253,1.094,1.1,1.086,4.148-.041,8.3-.026,12.444-.015,1.878,0,1.682-.219,1.684,1.637q.01,18.131-.019,36.26c0,1.032.283,1.343,1.322,1.322,3.217-.062,6.435-.024,9.654-.021a1.285,1.285,0,0,0,1.466-1.44c0-12.158.013-24.317-.024-36.475,0-1.039.288-1.328,1.32-1.313,3.79.06,7.581.026,11.371.026a2.174,2.174,0,0,0,2.455-2.468V.42Z" transform="translate(-352.375 -0.33)" fill="#2c030a"/>
    <path id="Path_54" data-name="Path 54" d="M500.941,243.232q-17.864.035-35.728,0c-.873,0-1.182.227-1.165,1.137.054,2.787.017,5.579.024,8.369,0,.348.034.7.058,1.169h11.98a1.242,1.242,0,0,1,1.382,1.423c0,12.195.017,24.39-.026,36.587,0,1.129.335,1.38,1.391,1.354q4.181-.1,8.367,0c1.049.026,1.4-.217,1.393-1.348-.043-12.266-.017-24.533-.047-36.8,0-.983.262-1.257,1.257-1.24,3.719.064,7.438.006,11.158.039.775.006,1.069-.2,1.056-1.024q-.064-4.291,0-8.583c.015-.86-.266-1.086-1.105-1.084Z" transform="translate(-364.47 -191.037)" fill="#2c030a"/>
    <path id="Path_55" data-name="Path 55" d="M48.72.42H2.75V11.28H48.72Z" transform="translate(-2.16 -0.33)" fill="#2c030a"/>
  </g>
</svg>
