<svg xmlns="http://www.w3.org/2000/svg" width="271" height="55.869" viewBox="0 0 271 55.869">
  <g id="Layer_1" data-name="Layer 1" transform="translate(-0.001 0.01)">
    <g id="Group_2" data-name="Group 2" transform="translate(0.001 -0.01)">
      <path id="Path_1" data-name="Path 1" d="M91.157,23.938s-.074,0-.092.037c-.277.314-2.681,1.923-7.395,1.923h0a24.575,24.575,0,0,1-6.23-.85,14.584,14.584,0,0,0-3.716-.518c-3.771,0-7.413,2.034-7.95,5.916a4.456,4.456,0,0,0,1.59,4.234,4.189,4.189,0,0,0,2.551.869,2.211,2.211,0,0,0,2.459-2.126,2.052,2.052,0,1,0-4.1,0,2.039,2.039,0,0,0,.592,1.461,3.427,3.427,0,0,1-2.385-2.995C66.4,29,69.1,28.8,69.6,28.745c3.309-.277,8.689,2.366,12.072,2.348a10.178,10.178,0,0,0,9.613-7.007.234.234,0,0,0-.018-.111.1.1,0,0,0-.092-.055" transform="translate(55.779 20.32)" fill="#c59d6a"/>
      <path id="Path_2" data-name="Path 2" d="M72.561,28.6V39.138s.055.111.111.111a9.715,9.715,0,0,1,2.829,0,.122.122,0,0,0,.129-.111V6.212s-.019-.074-.055-.092a30.622,30.622,0,0,0-2.884-1.128.1.1,0,0,0-.129.111V21.612a6.619,6.619,0,0,0-7.136,3.864.1.1,0,0,0,.111.148A6.363,6.363,0,0,1,72.561,28.6" transform="translate(55.517 4.252)" fill="#c59d6a"/>
      <path id="Path_3" data-name="Path 3" d="M80.574,39.454V7.249s-.055-.111-.129-.111a16.775,16.775,0,0,1-8.6-1.146c-.074-.018-.148.018-.148.092V38.6s.037.092.074.111a23.158,23.158,0,0,0,8.689.85c.055,0,.074-.055.074-.111" transform="translate(60.853 5.1)" fill="#c59d6a"/>
      <path id="Path_4" data-name="Path 4" d="M97.98.628A22.438,22.438,0,0,1,87.072,3.234c-4.363,0-10.057-1.756-13.5-1.812-8.375-.129-9.484,5.971-9.5,6.045a8.444,8.444,0,0,0-.092,3.827s.906,4.012,4.64,4.012a2.192,2.192,0,0,0,2.126-1.775,2.047,2.047,0,1,0-4.012-.813,2.105,2.105,0,0,0,.185,1.387,4.123,4.123,0,0,1-2.108-3.457,4.253,4.253,0,0,1,1.128-2.884,5.015,5.015,0,0,1,3.771-1.331,19.924,19.924,0,0,1,7.654,2.034,20.743,20.743,0,0,0,8.061,1.923C94.153,10.5,97.518,2.366,98.109.757a.1.1,0,0,0-.148-.129" transform="translate(54.151 0.537)" fill="#c59d6a"/>
      <path id="Path_5" data-name="Path 5" d="M93.831,38.838a14.569,14.569,0,0,1,2.847.37.122.122,0,0,0,.129-.111V8.2s0-.055-.018-.074a14.9,14.9,0,0,0-2.884-2.644.109.109,0,0,0-.166.092v15.6A6.593,6.593,0,0,0,86.7,25.065a.1.1,0,0,0,.111.148,6.365,6.365,0,0,1,6.933,2.847V38.745s.037.111.111.111" transform="translate(73.57 4.663)" fill="#c59d6a"/>
      <path id="Path_6" data-name="Path 6" d="M130.532,27.9V38.442s.055.111.129.111a9.834,9.834,0,0,1,2.829,0,.122.122,0,0,0,.129-.111V6.718s-.018-.092-.074-.092c-.333-.092-1.7-.481-2.866-.813a.1.1,0,0,0-.129.111V20.934a6.6,6.6,0,0,0-7.136,3.864.106.106,0,0,0,.111.148,6.405,6.405,0,0,1,7.025,2.976" transform="translate(104.737 4.948)" fill="#c59d6a"/>
      <path id="Path_7" data-name="Path 7" d="M95.514,1.03c-8.874.111-9.891,6.785-10.057,7.45s-.7,6.452,4.271,6.452a2.226,2.226,0,0,0,2.2-1.627,2.053,2.053,0,1,0-4.03-.518,2.129,2.129,0,0,0,.37,1.183C85.975,12.77,86.418,10,86.418,9.96a4.227,4.227,0,0,1,4.492-3.734c2.551,0,5.306,1.719,7.654,4.382l37.141,40.617s.185.018.185-.074V38.431s0-.055-.018-.074L107.734,7.5S102.65.938,95.533,1.03" transform="translate(72.442 0.892)" fill="#c59d6a"/>
      <path id="Path_8" data-name="Path 8" d="M94.529,9.4,93.29,8.015s-.148-.2-.259-.185c-.129.037-.111.314-.111.314V37.466s.037.092.074.111c.536.129,1.165.24,1.424.3a.122.122,0,0,0,.129-.111V9.476s0-.055-.019-.074" transform="translate(78.863 6.664)" fill="#c59d6a"/>
      <path id="Path_9" data-name="Path 9" d="M111.02,5.783V28.929s0,.055.018.074l2.866,3.143s.185.018.185-.074V6.282s-.037-.111-.092-.111a11.216,11.216,0,0,1-2.847-.5.1.1,0,0,0-.129.092" transform="translate(94.225 4.829)" fill="#c59d6a"/>
      <path id="Path_10" data-name="Path 10" d="M111.407,23.938s-.074,0-.092.037c-.277.314-2.681,1.923-7.395,1.923h0a24.575,24.575,0,0,1-6.23-.85,14.584,14.584,0,0,0-3.716-.518c-3.771,0-7.413,2.034-7.95,5.916a4.456,4.456,0,0,0,1.59,4.234,4.189,4.189,0,0,0,2.551.869,2.211,2.211,0,0,0,2.459-2.126,2.052,2.052,0,1,0-4.1,0,2.1,2.1,0,0,0,.573,1.461,3.427,3.427,0,0,1-2.385-2.995,3.046,3.046,0,0,1,3.124-3.143c3.309-.277,8.689,2.366,12.072,2.348a10.178,10.178,0,0,0,9.613-7.007.234.234,0,0,0-.018-.111.1.1,0,0,0-.092-.055" transform="translate(72.966 20.32)" fill="#c59d6a"/>
      <path id="Path_11" data-name="Path 11" d="M133.14,1.791a.1.1,0,0,0-.129-.148c-.795.481-2.7,1.294-6.323,1.294a37.336,37.336,0,0,1-8.171-1.072A26.99,26.99,0,0,0,112.4,1.07c-3.734,0-6.415,1.424-7.876,3.661a7.575,7.575,0,0,0-.85,6.267,5.58,5.58,0,0,0,5.361,3.919,2.174,2.174,0,0,0,2.145-1.793,2.061,2.061,0,1,0-4.086-.351,2.632,2.632,0,0,0,.333,1.146c-1.22-.185-4.271-3.124-2.218-6.4.795-1.276,3.42-3.291,11.333.148a12.234,12.234,0,0,0,4.936,1.054c6.212,0,10.464-5.269,11.629-6.914" transform="translate(87.709 0.927)" fill="#c59d6a"/>
      <path id="Path_12" data-name="Path 12" d="M149.137,23.938s-.074,0-.092.037c-.277.314-2.7,1.923-7.395,1.923h0a24.575,24.575,0,0,1-6.23-.85,14.475,14.475,0,0,0-3.716-.518c-3.771,0-7.413,2.034-7.95,5.916a4.456,4.456,0,0,0,1.59,4.234,4.189,4.189,0,0,0,2.551.869,2.211,2.211,0,0,0,2.459-2.126,2.052,2.052,0,1,0-4.1,0,2.039,2.039,0,0,0,.592,1.461,3.427,3.427,0,0,1-2.385-2.995c-.074-2.884,2.625-3.087,3.124-3.143,3.309-.277,8.689,2.366,12.072,2.348a10.178,10.178,0,0,0,9.613-7.007.235.235,0,0,0-.018-.111.1.1,0,0,0-.092-.055" transform="translate(104.989 20.32)" fill="#c59d6a"/>
      <path id="Path_13" data-name="Path 13" d="M138.537,39.047V8.505s-.037-.092-.074-.111c-.666-.111-5.195-.924-8.634-1.923a.1.1,0,0,0-.129.111V38.2s.037.092.074.111a24.73,24.73,0,0,0,8.689.85.1.1,0,0,0,.092-.111" transform="translate(110.08 5.508)" fill="#c59d6a"/>
      <path id="Path_14" data-name="Path 14" d="M157.149,4.2a56.893,56.893,0,0,1-13.126-1.775,39.955,39.955,0,0,0-9.3-1.22c-3.494,0-8.412.647-11.906,3.864-3.642,3.346-4.973,9.04-.961,12.22A5.486,5.486,0,0,0,126.5,18.4a2.087,2.087,0,0,0,1.645-2.625,2.053,2.053,0,0,0-4.03.573,2.149,2.149,0,0,0,.555,1.387c-2.625-.148-4.1-2.94-4.2-4.6-.129-2.57,1.9-5.121,6.711-5.1,3.235,0,6.286.813,10.168,1.83,3.513.924,11.185,2.94,15.419,2.958,10.519.055,15.825-9.891,16.879-12.294a.1.1,0,0,0-.166-.111c-1.054,1.054-4.548,3.79-12.368,3.79" transform="translate(101.341 0.332)" fill="#c59d6a"/>
      <path id="Path_15" data-name="Path 15" d="M55.595,21.429s-.055-.074-.092-.074H43.541L48.514,8.8s.037-.129,0-.148c-.055-.037-.129.055-.129.055h0a5.9,5.9,0,0,1-1.978,1.165c-.037,0-.055.018-.074.055-.481,1.165-9.909,25-9.909,25a.11.11,0,0,0,.074.148c.24.055.813.2,1.368.388a.1.1,0,0,0,.129-.055l3.161-7.968H57.684s.129-.074.092-.148l-2.163-5.842Z" transform="translate(30.906 7.356)" fill="#c59d6a"/>
      <path id="Path_16" data-name="Path 16" d="M33.163,22.052a6.456,6.456,0,0,1,5.676,1.387L34.7,33.884s0,.148.092.148a16.644,16.644,0,0,1,2.958.222c.055,0,.092,0,.111-.055l9.65-24.329s-.018-.148-.111-.148A6.255,6.255,0,0,1,44.57,9.2a.124.124,0,0,0-.148.055l-3.55,8.948a6.623,6.623,0,0,0-7.857,3.716c-.037.074.018.148.111.129" transform="translate(28.009 7.824)" fill="#c59d6a"/>
      <path id="Path_17" data-name="Path 17" d="M81.385,38.3A4.172,4.172,0,0,0,77.8,36.729a2.209,2.209,0,0,0-2,2.2,2.052,2.052,0,1,0,4.1,0,2.129,2.129,0,0,0-.37-1.183,3.7,3.7,0,0,1,1.96,4.437c-.7,3.272-3.975,3.771-5.066,3.771-2.108,0-4.308-.721-6.008-4.807L58.831,9.719S56.021,1.03,47.775,1.03a10.171,10.171,0,0,0-8.356,3.734c-1.479,1.775-2.662,5.916-.555,8.412a4.37,4.37,0,0,0,3.2,1.7h0A2.076,2.076,0,1,0,40.269,13.8c-3.531-2.662-1.239-8.375,3.254-8.227,3.124.111,5.01,2.145,6.082,4.992L61.2,42s2.81,8.541,11.055,8.689c4.677.092,7.155-2.034,8.43-3.734,1.387-1.849,3.087-5.676.684-8.652" transform="translate(32.014 0.893)" fill="#c59d6a"/>
      <path id="Path_18" data-name="Path 18" d="M58.273,23.83s-.074-.055-.129-.037c-.018,0-.037.018-.055.037A6.577,6.577,0,0,1,55.8,24.939c-2.071.647-6.526,1.405-13.015-.776a12.582,12.582,0,0,0-7.728-.462,8.535,8.535,0,0,0-5.676,5.916,5.213,5.213,0,0,0,1.442,5.01,4.205,4.205,0,0,0,2.94,1.22,2.2,2.2,0,0,0,2.274-2.292,2.256,2.256,0,1,0-4.511,0,2.351,2.351,0,0,0,.24,1.017,3.642,3.642,0,0,1-1.331-1.424c-.758-1.424-.684-4.086,1.35-5.14,5.213-2.681,12.091,4.714,19.208,2.921,4.141-1.054,6.988-5.9,7.3-6.988a.156.156,0,0,0-.037-.129" transform="translate(24.807 19.782)" fill="#c59d6a"/>
      <path id="Path_19" data-name="Path 19" d="M18.98,27.166c5.121,1.2,9.983,2.329,11.832,5.546.055.111,1.368,2.681-.407,6.545a.1.1,0,0,0,.148.129c1.461-1.128,7.3-5.99,6.267-11.555-.98-5.213-7.007-5.75-13.292-6.323-17.286-1.59-20-8.412-21-11.721a.1.1,0,0,0-.2,0c-.277,1.479-1,6.84,2.237,10.778,3.254,3.956,8.966,5.287,14.476,6.563" transform="translate(1.742 8.256)" fill="#c59d6a"/>
      <path id="Path_20" data-name="Path 20" d="M27.376,18.348c-.647,0-3.919.092-5.084.092-8.689,0-13.459-1.719-14.18-5.1a6.24,6.24,0,0,1,1.978-6.471,11.442,11.442,0,0,1,7.6-2.551A23.337,23.337,0,0,1,30.316,8.457a.079.079,0,0,0,.129-.037c.333-.5,2-3.106,2.237-3.476a.143.143,0,0,0-.037-.185C31.758,4.15,25.38-.01,17.874-.01A17.282,17.282,0,0,0,9.481,2.079a12.781,12.781,0,0,0-6.526,8.375c-.85,3.161-.832,7.857,4.03,12.276,3.993,3.624,10.113,4.234,16.029,4.807,7.025.7,13.7,1.35,15.252,7.284,1.775,6.766-6.489,13.792-8.782,15.6-.092.074,0,.222.092.185,2.884-.776,17.452-5.417,16.861-19.3-.37-8.726-6.6-12.978-19.061-12.978" transform="translate(2.146 0.01)" fill="#c59d6a"/>
      <path id="Path_21" data-name="Path 21" d="M30.854,29.61A6.719,6.719,0,0,1,28.266,30c-2.255,0-6.877-.629-12.627-4.77A13,13,0,0,0,8.133,22.4,9.487,9.487,0,0,0,2.68,24.045,6.074,6.074,0,0,0,.7,31.9a4.294,4.294,0,0,0,3.587,2.255,2.274,2.274,0,1,0-2.237-2.274,2.089,2.089,0,0,0,.166.832A4.1,4.1,0,0,1,.757,30.331c-.314-1.645.536-4.252,2.847-4.659,5.953-1.054,10.556,8.393,18.136,8.8,4.4.24,8.671-3.679,9.3-4.659a.141.141,0,0,0,0-.148.125.125,0,0,0-.185-.055" transform="translate(-0.001 19.03)" fill="#c59d6a"/>
      <path id="Path_22" data-name="Path 22" d="M29.4,1.07c-1.793,0-4.382.813-6.489,4.7-3.309,6.082-7.358,7.395-8.171,7.395H14.7s-.092.037-.111.092c0,.055,0,.111.055.129a7.816,7.816,0,0,0,3.771.758A8.348,8.348,0,0,0,25.978,9.2C27.457,5.9,28.955,1.92,31.469,2.2a2.757,2.757,0,0,1,2.348,3.2,2.8,2.8,0,0,1-.055.388,2.075,2.075,0,1,0-2.108,2.4h.166A2.91,2.91,0,0,0,34.3,5.378c.111-1.017-.37-4.308-4.881-4.308" transform="translate(12.381 0.927)" fill="#c59d6a"/>
    </g>
  </g>
</svg>
